<?xml version="1.0" encoding="utf-8"?>
<!-- Generator: Adobe Illustrator 22.0.0, SVG Export Plug-In . SVG Version: 6.00 Build 0)  -->
<svg version="1.1" id="Layer_1" xmlns="http://www.w3.org/2000/svg" xmlns:xlink="http://www.w3.org/1999/xlink" x="0px" y="0px"
	 viewBox="0 0 5000 5000" style="enable-background:new 0 0 5000 5000;" xml:space="preserve">
<style type="text/css">
	.st0{fill:#333333;}
</style>
<path class="st0" d="M1505.7,4693.8c-294,0-569.8-113.7-776.1-320.4c-206.7-206.3-320.4-482.1-320.4-776.1s113.7-569.3,320.4-776
	L2999.8,551c324.5-324.6,829.4-309.9,1173.7,34.5c344.4,344.3,359.4,848.8,34.5,1173.7L2075.4,3892.1
	c-200.1,200.2-526.3,200.2-726.9,0c-200.2-200.6-200.2-526.7,0-726.9l1444.6-1444.5c48.7-48.8,127.9-48.8,176.6,0
	c48.8,48.7,48.8,127.5,0,176.2L1525.1,3341.8c-103.1,102.8-103.1,270.5,0,373.7c103.2,103.1,270.9,103.1,373.7,0l2133-2132.6
	c224.2-224.2,209.1-577-34.5-821.1c-244.1-243.7-597-258.3-821.2-34.1L905.8,2997.8c-159.2,159.2-247.3,372.4-247.3,599.4
	c0,227.5,88.2,440.3,247.3,599.9c159.6,159.6,372.4,247.3,599.9,247.3c227.4,0,440.2-87.7,599.8-247.3l2270.2-2270.2
	c48.8-48.8,127.6-48.8,176.3,0c48.7,48.8,48.7,127.6,0,176.2L2281.8,4373.3C2075.4,4580,1799.7,4693.8,1505.7,4693.8L1505.7,4693.8z
	 M1505.7,4693.8"/>
</svg>
