<?xml version="1.0" encoding="utf-8"?>
<!-- Generator: Adobe Illustrator 22.0.0, SVG Export Plug-In . SVG Version: 6.00 Build 0)  -->
<svg version="1.1" id="Layer_1" xmlns="http://www.w3.org/2000/svg" xmlns:xlink="http://www.w3.org/1999/xlink" x="0px" y="0px"
	 viewBox="0 0 366 366" style="enable-background:new 0 0 366 366;" xml:space="preserve">
<style type="text/css">
	.st0{opacity:0.7;filter:url(#glow);}
	.st1{fill:#00D4FF;}
</style>
<filter  id="glow">
	<feGaussianBlur  result="coloredBlur" stdDeviation="2.5"></feGaussianBlur>
	<feMerge>
		<feMergeNode  in="coloredBlur"></feMergeNode>
		<feMergeNode  in="SourceGraphic"></feMergeNode>
	</feMerge>
</filter>
<g class="st0">
	<g>
		<g>
			<path class="st1" d="M183,296c-15.2,0-30-3-44-8.9c-13.5-5.7-25.5-13.8-35.9-24.2c-10.4-10.4-18.5-22.5-24.2-35.9
				C73,213,70,198.2,70,183c0-15.2,3-30,8.9-44c5.7-13.5,13.8-25.5,24.2-35.9c10.4-10.4,22.5-18.5,35.9-24.2C153,73,167.8,70,183,70
				v48.8c-35.4,0-64.2,28.8-64.2,64.2c0,35.4,28.8,64.2,64.2,64.2c35.4,0,64.2-28.8,64.2-64.2H296c0,15.2-3,30-8.9,44
				c-5.7,13.5-13.8,25.5-24.2,35.9c-10.4,10.4-22.5,18.5-35.9,24.2C213,293,198.2,296,183,296z"/>
		</g>
	</g>
	<g>
		<path class="st1" d="M183,118.8V183h64.2C247.2,147.5,218.5,118.8,183,118.8z M225.1,143.8c-1,0.9-2,1.4-3.2,1.4
			c-0.4,0-1.5-0.3-3.1-0.8c-1.6-0.5-3.1-0.8-4.3-0.8c-1.7,0-3.1,0.4-4.2,1.3c-1.1,0.9-1.9,2.2-2.5,4c-0.6,1.8-1,3.9-1.2,6.3
			c-0.2,2.4-0.3,5.4-0.3,8.9v9.8c0,2.4-0.6,4.1-1.7,5.3c-1.1,1.2-2.5,1.8-4.2,1.8c-1.7,0-3.1-0.6-4.2-1.8c-1.1-1.2-1.6-3-1.6-5.3
			v-32.5c0-5.2,1.9-7.9,5.7-7.9c1.9,0,3.3,0.6,4.2,1.8c0.9,1.2,1.3,3,1.4,5.4c1.4-2.4,2.8-4.2,4.3-5.4c1.5-1.2,3.4-1.8,5.9-1.8
			c2.5,0,4.8,0.6,7.1,1.8c2.3,1.2,3.5,2.9,3.5,4.9C226.6,141.7,226.1,142.9,225.1,143.8z"/>
	</g>
</g>
</svg>
