<?xml version="1.0" encoding="utf-8"?>
<!-- Generator: Adobe Illustrator 22.0.0, SVG Export Plug-In . SVG Version: 6.00 Build 0)  -->
<svg version="1.1" id="Layer_1" xmlns="http://www.w3.org/2000/svg" xmlns:xlink="http://www.w3.org/1999/xlink" x="0px" y="0px"
	 viewBox="0 0 490 230" style="enable-background:new 0 0 490 230;" xml:space="preserve">
<style type="text/css">
	.st0{opacity:0.164;fill:none;stroke:#DDA032;stroke-width:2;stroke-dasharray:31,7,8;enable-background:new    ;}
	.st1{opacity:0.12;fill:none;stroke:#DDA032;stroke-width:2;stroke-dasharray:3,8,34;enable-background:new    ;}
	.st2{opacity:8.000000e-02;fill:none;stroke:#DDA032;stroke-width:2;stroke-dasharray:2,6,8;enable-background:new    ;}
</style>
<g>
	<path class="st0" d="M139.5,50c-12.2,19.2-19.2,42.1-19.2,66.6c0,20.2,4.8,39.2,13.3,56.1 M352.7,179.5c10.8-18.5,17-40,17-62.9
		c0-24.3-7-47-19-66.2"/>
	<path class="st1" d="M370.9,160.2c4.8-13.7,7.3-28.3,7.3-43.6c0-12.5-1.7-24.6-4.9-36 M121.8,65.6c-6.5,15.7-10.1,32.9-10.1,51
		c0,12.6,1.8,24.7,5,36.2"/>
	<path class="st2" d="M109.4,88.9c-1.9,9.1-2.8,18.4-2.8,27.7c0,7.5,0.6,14.8,1.8,21.9 M382.9,128.1c0.3-3.8,0.5-7.6,0.5-11.5
		c0-7.3-0.6-14.5-1.6-21.5"/>
</g>
</svg>
